<?xml version="1.0" encoding="iso-8859-1"?>
<!-- Generator: Adobe Illustrator 19.0.0, SVG Export Plug-In . SVG Version: 6.00 Build 0)  -->
<svg version="1.1" id="Layer_1" xmlns="http://www.w3.org/2000/svg" xmlns:xlink="http://www.w3.org/1999/xlink" x="0px" y="0px"
	 viewBox="0 0 512 512" style="enable-background:new 0 0 512 512;" xml:space="preserve">
<path style="fill:#FFFFFF;" d="M136.108,214.999c-28.237-28.237-74.037-28.262-102.3,0c-28.249,28.249-28.249,74.051,0,102.3
	l80.445,80.447l102.3-102.3L136.108,214.999z"/>
<path style="fill:#FF7876;" d="M114.255,397.746l80.447,80.447c28.249,28.249,74.051,28.249,102.3,0l0,0
	c28.249-28.249,28.249-74.051,0-102.3l-80.447-80.447L114.255,397.746z"/>
<path style="fill:#FFFFFF;" d="M375.891,297.003c28.249,28.249,74.051,28.249,102.3,0l0,0c28.249-28.249,28.249-74.051,0-102.3
	l-80.445-80.447l-102.3,102.3L375.891,297.003z"/>
<path style="fill:#FF7876;" d="M397.745,114.256l-80.447-80.447c-28.249-28.249-74.051-28.249-102.3,0l0,0
	c-28.249,28.249-28.249,74.051,0,102.3l80.447,80.447L397.745,114.256z"/>
<g>
	<path style="fill:#58595B;" d="M145.06,206.047c-33.141-33.141-87.064-33.139-120.204,0c-33.141,33.141-33.141,87.065,0,120.204
		c7.077,7.077,153.845,153.845,160.892,160.892c33.141,33.141,87.063,33.141,120.206,0c33.139-33.141,33.139-87.064,0-120.206
		C298.876,359.861,152.108,213.093,145.06,206.047z M42.76,223.953c23.325-23.323,61.069-23.325,84.396,0l71.493,71.493
		l-84.396,84.396L42.76,308.347C19.437,285.022,19.437,247.277,42.76,223.953z M288.048,469.239
		c-23.266,23.267-61.123,23.271-84.394,0l-71.495-71.495l84.396-84.396l71.493,71.495
		C311.315,408.112,311.315,445.972,288.048,469.239z"/>
	<path style="fill:#58595B;" d="M487.144,185.749c-7.078-7.078-153.846-153.846-160.892-160.892
		c-33.143-33.139-87.066-33.143-120.207,0c-33.141,33.141-33.141,87.064,0,120.204c7.09,7.09,153.861,153.861,160.892,160.892
		c33.141,33.139,87.063,33.141,120.206,0C520.285,272.814,520.285,218.89,487.144,185.749z M223.95,42.762
		c23.267-23.267,61.127-23.269,84.396,0l71.493,71.493l-84.396,84.396l-71.493-71.493C200.683,103.889,200.683,66.03,223.95,42.762z
		 M469.238,288.049c-23.267,23.267-61.125,23.267-84.392,0l-71.495-71.493l84.396-84.396l71.492,71.493
		C492.56,226.974,492.565,264.724,469.238,288.049z"/>
</g>
<g>
</g>
<g>
</g>
<g>
</g>
<g>
</g>
<g>
</g>
<g>
</g>
<g>
</g>
<g>
</g>
<g>
</g>
<g>
</g>
<g>
</g>
<g>
</g>
<g>
</g>
<g>
</g>
<g>
</g>
</svg>
